<svg width="25" height="25" viewBox="0 0 25 25" fill="none" xmlns="http://www.w3.org/2000/svg">
<path d="M8.9957 1.67383C9.36568 1.89582 9.48566 2.37571 9.26367 2.7457L5.28609 9.375H19.7139L15.7363 2.7457C15.5143 2.37571 15.6343 1.89582 16.0043 1.67383C16.3743 1.45184 16.8542 1.57181 17.0762 1.9418L21.5361 9.375H23.4375C24.3004 9.375 25 10.0746 25 10.9375V12.5C25 13.3629 24.3004 14.0625 23.4375 14.0625V21.0941C23.4375 23.2516 21.6885 25 19.5312 25H5.46875C3.31151 25 1.5625 23.2516 1.5625 21.0941V14.0625C0.699555 14.0625 0 13.3629 0 12.5V10.9375C0 10.0746 0.699555 9.375 1.5625 9.375H3.46391L7.92383 1.9418C8.14582 1.57181 8.62572 1.45184 8.9957 1.67383ZM3.125 14.0625V21.0941C3.125 22.3884 4.17421 23.4375 5.46875 23.4375H19.5312C20.8258 23.4375 21.875 22.3884 21.875 21.0941V14.0625H3.125ZM1.5625 10.9375V12.5H23.4375V10.9375H1.5625ZM6.25 15.625C6.68147 15.625 7.03125 15.9748 7.03125 16.4062V21.0937C7.03125 21.5252 6.68147 21.875 6.25 21.875C5.81853 21.875 5.46875 21.5252 5.46875 21.0937V16.4062C5.46875 15.9748 5.81853 15.625 6.25 15.625ZM9.375 15.625C9.80647 15.625 10.1562 15.9748 10.1562 16.4062V21.0937C10.1562 21.5252 9.80647 21.875 9.375 21.875C8.94353 21.875 8.59375 21.5252 8.59375 21.0937V16.4062C8.59375 15.9748 8.94353 15.625 9.375 15.625ZM12.5 15.625C12.9315 15.625 13.2812 15.9748 13.2812 16.4062V21.0937C13.2812 21.5252 12.9315 21.875 12.5 21.875C12.0685 21.875 11.7188 21.5252 11.7188 21.0937V16.4062C11.7188 15.9748 12.0685 15.625 12.5 15.625ZM15.625 15.625C16.0565 15.625 16.4062 15.9748 16.4062 16.4062V21.0937C16.4062 21.5252 16.0565 21.875 15.625 21.875C15.1935 21.875 14.8438 21.5252 14.8438 21.0937V16.4062C14.8438 15.9748 15.1935 15.625 15.625 15.625ZM18.75 15.625C19.1815 15.625 19.5312 15.9748 19.5312 16.4062V21.0937C19.5312 21.5252 19.1815 21.875 18.75 21.875C18.3185 21.875 17.9688 21.5252 17.9688 21.0937V16.4062C17.9688 15.9748 18.3185 15.625 18.75 15.625Z" fill="black"/>
</svg>
