<svg width="25" height="25" viewBox="0 0 25 25" fill="none" xmlns="http://www.w3.org/2000/svg">
<path d="M12.7901 1.73874C12.6039 1.66424 12.3961 1.66424 12.2099 1.73874L2.88483 5.46875L12.5 9.31482L22.1152 5.46875L12.7901 1.73874ZM23.4375 6.62268L13.2812 10.6852V23.0648L23.4375 19.0023V6.62268ZM11.7188 23.0648V10.6852L1.5625 6.62268V19.0023L11.7188 23.0648ZM11.6296 0.287994C12.1883 0.0644838 12.8117 0.0644837 13.3704 0.287994L24.5089 4.74337C24.8055 4.86202 25 5.14929 25 5.46875V19.0023C25 19.6412 24.611 20.2158 24.0178 20.4531L12.7901 24.9441C12.6039 25.0186 12.3961 25.0186 12.2099 24.9441L0.982202 20.4531C0.388986 20.2158 0 19.6412 0 19.0023V5.46875C0 5.14929 0.194493 4.86202 0.491101 4.74337L11.6296 0.287994Z" fill="black"/>
</svg>
