<svg width="25" height="25" viewBox="0 0 25 25" fill="none" xmlns="http://www.w3.org/2000/svg">
<path d="M22.6562 4.6875C23.0877 4.6875 23.4375 5.03728 23.4375 5.46875V19.5312C23.4375 19.9627 23.0877 20.3125 22.6562 20.3125H2.34375C1.91228 20.3125 1.5625 19.9627 1.5625 19.5312V5.46875C1.5625 5.03728 1.91228 4.6875 2.34375 4.6875H22.6562ZM2.34375 3.125C1.04933 3.125 0 4.17433 0 5.46875V19.5312C0 20.8257 1.04933 21.875 2.34375 21.875H22.6562C23.9507 21.875 25 20.8257 25 19.5312V5.46875C25 4.17433 23.9507 3.125 22.6562 3.125H2.34375Z" fill="#4710AA"/>
<path d="M7.8125 12.5C7.8125 12.0685 8.16228 11.7188 8.59375 11.7188H19.5312C19.9627 11.7188 20.3125 12.0685 20.3125 12.5C20.3125 12.9315 19.9627 13.2812 19.5312 13.2812H8.59375C8.16228 13.2812 7.8125 12.9315 7.8125 12.5Z" fill="#4710AA"/>
<path d="M7.8125 8.59375C7.8125 8.16228 8.16228 7.8125 8.59375 7.8125H19.5312C19.9627 7.8125 20.3125 8.16228 20.3125 8.59375C20.3125 9.02522 19.9627 9.375 19.5312 9.375H8.59375C8.16228 9.375 7.8125 9.02522 7.8125 8.59375Z" fill="#4710AA"/>
<path d="M7.8125 16.4062C7.8125 15.9748 8.16228 15.625 8.59375 15.625H19.5312C19.9627 15.625 20.3125 15.9748 20.3125 16.4062C20.3125 16.8377 19.9627 17.1875 19.5312 17.1875H8.59375C8.16228 17.1875 7.8125 16.8377 7.8125 16.4062Z" fill="#4710AA"/>
<path d="M6.25 8.59375C6.25 9.02522 5.90022 9.375 5.46875 9.375C5.03728 9.375 4.6875 9.02522 4.6875 8.59375C4.6875 8.16228 5.03728 7.8125 5.46875 7.8125C5.90022 7.8125 6.25 8.16228 6.25 8.59375Z" fill="#4710AA"/>
<path d="M6.25 12.5C6.25 12.9315 5.90022 13.2812 5.46875 13.2812C5.03728 13.2812 4.6875 12.9315 4.6875 12.5C4.6875 12.0685 5.03728 11.7188 5.46875 11.7188C5.90022 11.7188 6.25 12.0685 6.25 12.5Z" fill="#4710AA"/>
<path d="M6.25 16.4062C6.25 16.8377 5.90022 17.1875 5.46875 17.1875C5.03728 17.1875 4.6875 16.8377 4.6875 16.4062C4.6875 15.9748 5.03728 15.625 5.46875 15.625C5.90022 15.625 6.25 15.9748 6.25 16.4062Z" fill="#4710AA"/>
</svg>
