<svg width="25" height="25" viewBox="0 0 25 25" fill="none" xmlns="http://www.w3.org/2000/svg">
<path d="M12.5 23.4375C6.45939 23.4375 1.5625 18.5406 1.5625 12.5C1.5625 6.45939 6.45939 1.5625 12.5 1.5625C18.5406 1.5625 23.4375 6.45939 23.4375 12.5C23.4375 18.5406 18.5406 23.4375 12.5 23.4375ZM12.5 25C19.4036 25 25 19.4036 25 12.5C25 5.59644 19.4036 0 12.5 0C5.59644 0 0 5.59644 0 12.5C0 19.4036 5.59644 25 12.5 25Z" fill="black"/>
<path d="M12.5 6.25C12.9315 6.25 13.2812 6.59978 13.2812 7.03125V11.7188H17.9688C18.4002 11.7188 18.75 12.0685 18.75 12.5C18.75 12.9315 18.4002 13.2812 17.9688 13.2812H13.2812V17.9688C13.2812 18.4002 12.9315 18.75 12.5 18.75C12.0685 18.75 11.7188 18.4002 11.7188 17.9688V13.2812H7.03125C6.59978 13.2812 6.25 12.9315 6.25 12.5C6.25 12.0685 6.59978 11.7188 7.03125 11.7188H11.7188V7.03125C11.7188 6.59978 12.0685 6.25 12.5 6.25Z" fill="black"/>
</svg>
