<svg width="30" height="30" viewBox="0 0 30 30" fill="none" xmlns="http://www.w3.org/2000/svg">
<path d="M27.1875 5.625C27.7053 5.625 28.125 6.04473 28.125 6.5625V23.4375C28.125 23.9553 27.7053 24.375 27.1875 24.375H2.8125C2.29473 24.375 1.875 23.9553 1.875 23.4375V6.5625C1.875 6.04473 2.29473 5.625 2.8125 5.625H27.1875ZM2.8125 3.75C1.2592 3.75 0 5.0092 0 6.5625V23.4375C0 24.9908 1.2592 26.25 2.8125 26.25H27.1875C28.7408 26.25 30 24.9908 30 23.4375V6.5625C30 5.0092 28.7408 3.75 27.1875 3.75H2.8125Z" fill="black"/>
<path d="M9.375 15C9.375 14.4822 9.79473 14.0625 10.3125 14.0625H23.4375C23.9553 14.0625 24.375 14.4822 24.375 15C24.375 15.5178 23.9553 15.9375 23.4375 15.9375H10.3125C9.79473 15.9375 9.375 15.5178 9.375 15Z" fill="black"/>
<path d="M9.375 10.3125C9.375 9.79473 9.79473 9.375 10.3125 9.375H23.4375C23.9553 9.375 24.375 9.79473 24.375 10.3125C24.375 10.8303 23.9553 11.25 23.4375 11.25H10.3125C9.79473 11.25 9.375 10.8303 9.375 10.3125Z" fill="black"/>
<path d="M9.375 19.6875C9.375 19.1697 9.79473 18.75 10.3125 18.75H23.4375C23.9553 18.75 24.375 19.1697 24.375 19.6875C24.375 20.2053 23.9553 20.625 23.4375 20.625H10.3125C9.79473 20.625 9.375 20.2053 9.375 19.6875Z" fill="black"/>
<path d="M7.5 10.3125C7.5 10.8303 7.08027 11.25 6.5625 11.25C6.04473 11.25 5.625 10.8303 5.625 10.3125C5.625 9.79473 6.04473 9.375 6.5625 9.375C7.08027 9.375 7.5 9.79473 7.5 10.3125Z" fill="black"/>
<path d="M7.5 15C7.5 15.5178 7.08027 15.9375 6.5625 15.9375C6.04473 15.9375 5.625 15.5178 5.625 15C5.625 14.4822 6.04473 14.0625 6.5625 14.0625C7.08027 14.0625 7.5 14.4822 7.5 15Z" fill="black"/>
<path d="M7.5 19.6875C7.5 20.2053 7.08027 20.625 6.5625 20.625C6.04473 20.625 5.625 20.2053 5.625 19.6875C5.625 19.1697 6.04473 18.75 6.5625 18.75C7.08027 18.75 7.5 19.1697 7.5 19.6875Z" fill="black"/>
</svg>
