<svg width="25" height="25" viewBox="0 0 25 25" fill="none" xmlns="http://www.w3.org/2000/svg">
<path d="M19.5312 25C22.5516 25 25 22.5516 25 19.5312C25 16.5109 22.5516 14.0625 19.5312 14.0625C16.5109 14.0625 14.0625 16.5109 14.0625 19.5312C14.0625 22.5516 16.5109 25 19.5312 25ZM20.3125 17.1875V18.75H21.875C22.3065 18.75 22.6562 19.0998 22.6562 19.5312C22.6562 19.9627 22.3065 20.3125 21.875 20.3125H20.3125V21.875C20.3125 22.3065 19.9627 22.6562 19.5312 22.6562C19.0998 22.6562 18.75 22.3065 18.75 21.875V20.3125H17.1875C16.756 20.3125 16.4062 19.9627 16.4062 19.5312C16.4062 19.0998 16.756 18.75 17.1875 18.75H18.75V17.1875C18.75 16.756 19.0998 16.4062 19.5312 16.4062C19.9627 16.4062 20.3125 16.756 20.3125 17.1875Z" fill="#4710AA"/>
<path d="M17.1875 7.8125C17.1875 10.4013 15.0888 12.5 12.5 12.5C9.91117 12.5 7.8125 10.4013 7.8125 7.8125C7.8125 5.22367 9.91117 3.125 12.5 3.125C15.0888 3.125 17.1875 5.22367 17.1875 7.8125Z" fill="#4710AA"/>
<path d="M3.125 20.3125C3.125 21.875 4.6875 21.875 4.6875 21.875H12.9001C12.641 21.1419 12.5 20.3531 12.5 19.5312C12.5 17.4162 13.4339 15.5192 14.9119 14.2302C14.1829 14.1221 13.3812 14.0625 12.5 14.0625C4.6875 14.0625 3.125 18.75 3.125 20.3125Z" fill="#4710AA"/>
</svg>
